<?xml version="1.0"?>
<!DOCTYPE svg PUBLIC "-//W3C//DTD SVG 1.1//EN" "http://www.w3.org/Graphics/SVG/1.1/DTD/svg11.dtd">
<svg viewBox="0 0 400 380" version="1.1" 
xmlns="http://www.w3.org/2000/svg"
xmlns:xlink="http://www.w3.org/1999/xlink">
	<title>Resistor color code</title>
	<pattern 
		id="rulerPattern" patternUnits="userSpaceOnUse"
		x="0" y="0" width="10" height="10"
		viewBox="0 0 10 10" >
		<line x1="0" y1="0" x2="10" y2="0" stroke="lightgray" fill="none" />
		<line x1="0" y1="0" x2="0" y2="10" stroke="lightgray" fill="none" />
	</pattern>
	<rect x="0" y="0" width="100%" height="100%" fill="url(#rulerPattern)" stroke="gray" />
	<rect x="0" y="0" height="100%" width="100%" stroke="black" stroke-width="1" fill="transparent" />

	<path 
		stroke="black"
		fill="lightgray"
		d="M20 50 L60 50 L60 10 L80 10 L80 20 L320 20 L320 10 L340 10 L340 50 L380 50 C380 50 390 50 390 60 L390 60 L390 110 L380 110 L380 60
	L340 60 L340 100 L320 100 L320 90 L80 90 L80 100 L60 100 L60 60 L20 60 L20 110 L10 110 L10 60 C10 60 10 50 20 50" />

	<!-- BANDS -->
	<rect x="100" y="20" width="30" height="70" fill="transparent" id="bandA" />
	<rect x="140" y="20" width="30" height="70" fill="transparent" id="bandB" />
	<rect x="180" y="20" width="30" height="70" fill="transparent" id="bandC" />
	<rect x="220" y="20" width="30" height="70" fill="transparent" id="bandD" />
	<rect x="270" y="20" width="30" height="70" fill="transparent" id="bandE" />
		
	<!-- COLORS -->
	<rect onclick="setBandValue(this)" x="100" y="110" width="30" height="20" stroke="black" fill="transparent" id="bandA0" />
	<rect onclick="setBandValue(this)" x="100" y="170" width="30" height="20" stroke="black" fill="black" id="bandA3" />
	<rect onclick="setBandValue(this)" x="100" y="190" width="30" height="20" stroke="black" fill="brown" id="bandA4" />
	<rect onclick="setBandValue(this)" x="100" y="210" width="30" height="20" stroke="black" fill="red" id="bandA5" />
	<rect onclick="setBandValue(this)" x="100" y="230" width="30" height="20" stroke="black" fill="orange" id="bandA6" />
	<rect onclick="setBandValue(this)" x="100" y="250" width="30" height="20" stroke="black" fill="yellow" id="bandA7" />
	<rect onclick="setBandValue(this)" x="100" y="270" width="30" height="20" stroke="black" fill="green" id="bandA8" />
	<rect onclick="setBandValue(this)" x="100" y="290" width="30" height="20" stroke="black" fill="blue" id="bandA9" />
	<rect onclick="setBandValue(this)" x="100" y="310" width="30" height="20" stroke="black" fill="violet" id="bandA10" />
	<rect onclick="setBandValue(this)" x="100" y="330" width="30" height="20" stroke="black" fill="gray" id="bandA11" />
	<rect onclick="setBandValue(this)" x="100" y="350" width="30" height="20" stroke="black" fill="white" id="bandA12" />
	
	<rect onclick="setBandValue(this)" x="140" y="110" width="30" height="20" stroke="black" fill="transparent" id="bandB0" />
	<rect onclick="setBandValue(this)" x="140" y="170" width="30" height="20" stroke="black" fill="black" id="bandB3" />
	<rect onclick="setBandValue(this)" x="140" y="190" width="30" height="20" stroke="black" fill="brown" id="bandB4" />
	<rect onclick="setBandValue(this)" x="140" y="210" width="30" height="20" stroke="black" fill="red" id="bandB5" />
	<rect onclick="setBandValue(this)" x="140" y="230" width="30" height="20" stroke="black" fill="orange" id="bandB6" />
	<rect onclick="setBandValue(this)" x="140" y="250" width="30" height="20" stroke="black" fill="yellow" id="bandB7" />
	<rect onclick="setBandValue(this)" x="140" y="270" width="30" height="20" stroke="black" fill="green" id="bandB8" />
	<rect onclick="setBandValue(this)" x="140" y="290" width="30" height="20" stroke="black" fill="blue" id="bandB9" />
	<rect onclick="setBandValue(this)" x="140" y="310" width="30" height="20" stroke="black" fill="violet" id="bandB10" />
	<rect onclick="setBandValue(this)" x="140" y="330" width="30" height="20" stroke="black" fill="gray" id="bandB11" />
	<rect onclick="setBandValue(this)" x="140" y="350" width="30" height="20" stroke="black" fill="white" id="bandB12" />	

	<rect onclick="setBandValue(this)" x="180" y="110" width="30" height="20" stroke="black" fill="transparent" id="bandC0" />
	<rect onclick="setBandValue(this)" x="180" y="170" width="30" height="20" stroke="black" fill="black" id="bandC3" />
	<rect onclick="setBandValue(this)" x="180" y="190" width="30" height="20" stroke="black" fill="brown" id="bandC4" />
	<rect onclick="setBandValue(this)" x="180" y="210" width="30" height="20" stroke="black" fill="red" id="bandC5" />
	<rect onclick="setBandValue(this)" x="180" y="230" width="30" height="20" stroke="black" fill="orange" id="bandC6" />
	<rect onclick="setBandValue(this)" x="180" y="250" width="30" height="20" stroke="black" fill="yellow" id="bandC7" />
	<rect onclick="setBandValue(this)" x="180" y="270" width="30" height="20" stroke="black" fill="green" id="bandC8" />
	<rect onclick="setBandValue(this)" x="180" y="290" width="30" height="20" stroke="black" fill="blue" id="bandC9" />
	<rect onclick="setBandValue(this)" x="180" y="310" width="30" height="20" stroke="black" fill="violet" id="bandC10" />
	<rect onclick="setBandValue(this)" x="180" y="330" width="30" height="20" stroke="black" fill="gray" id="bandC11" />
	<rect onclick="setBandValue(this)" x="180" y="350" width="30" height="20" stroke="black" fill="white" id="bandC12" />	
	
	<rect onclick="setBandValue(this)" x="220" y="110" width="30" height="20" stroke="black" fill="transparent" id="bandD0" />
	<rect onclick="setBandValue(this)" x="220" y="130" width="30" height="20" stroke="black" fill="silver" id="bandD1" />
	<rect onclick="setBandValue(this)" x="220" y="150" width="30" height="20" stroke="black" fill="gold" id="bandD2" />
	<rect onclick="setBandValue(this)" x="220" y="170" width="30" height="20" stroke="black" fill="black" id="bandD3" />
	<rect onclick="setBandValue(this)" x="220" y="190" width="30" height="20" stroke="black" fill="brown" id="bandD4" />
	<rect onclick="setBandValue(this)" x="220" y="210" width="30" height="20" stroke="black" fill="red" id="bandD5" />
	<rect onclick="setBandValue(this)" x="220" y="230" width="30" height="20" stroke="black" fill="orange" id="bandD6" />
	<rect onclick="setBandValue(this)" x="220" y="250" width="30" height="20" stroke="black" fill="yellow" id="bandD7" />
	<rect onclick="setBandValue(this)" x="220" y="270" width="30" height="20" stroke="black" fill="green" id="bandD8" />
	<rect onclick="setBandValue(this)" x="220" y="290" width="30" height="20" stroke="black" fill="blue" id="bandD9" />
	<rect onclick="setBandValue(this)" x="220" y="310" width="30" height="20" stroke="black" fill="violet" id="bandD10" />

	<rect onclick="setBandValue(this)" x="270" y="110" width="30" height="20" stroke="black" fill="transparent" id="bandE0" />
	<rect onclick="setBandValue(this)" x="270" y="130" width="30" height="20" stroke="black" fill="silver" id="bandE1" />
	<rect onclick="setBandValue(this)" x="270" y="150" width="30" height="20" stroke="black" fill="gold" id="bandE2" />
	<rect onclick="setBandValue(this)" x="270" y="170" width="30" height="20" stroke="black" fill="black" id="bandE3" />
	<rect onclick="setBandValue(this)" x="270" y="190" width="30" height="20" stroke="black" fill="brown" id="bandE4" />
	<rect onclick="setBandValue(this)" x="270" y="210" width="30" height="20" stroke="black" fill="red" id="bandE5" />
	<rect onclick="setBandValue(this)" x="270" y="230" width="30" height="20" stroke="black" fill="orange" id="bandE6" />
	<rect onclick="setBandValue(this)" x="270" y="250" width="30" height="20" stroke="black" fill="yellow" id="bandE7" />
	<rect onclick="setBandValue(this)" x="270" y="270" width="30" height="20" stroke="black" fill="green" id="bandE8" />
	<rect onclick="setBandValue(this)" x="270" y="290" width="30" height="20" stroke="black" fill="blue" id="bandE9" />
	<rect onclick="setBandValue(this)" x="270" y="310" width="30" height="20" stroke="black" fill="violet" id="bandE10" />
	<rect onclick="setBandValue(this)" x="270" y="330" width="30" height="20" stroke="black" fill="gray" id="bandE11" />

	<text x="200" y="70" 
		style="font-size: 40px; font-family: verdana; font-weight:bold;text-anchor: middle" 
		stroke="black"
		fill="white"
		id="resistanceResult" />
		
	<text x="350" y="140" 
		style="font-size: 20px; font-family: verdana; font-weight:bold;text-anchor: middle" 
		fill="black"
		id="toleranceResult" />
		
	<script type="text/ecmascript"><![CDATA[
		var bandValues = {
			A: -1,
			B: -1,
			C: -1,
			D: -1,
			E: 0.2
		};
		
		var bandGroups = {
			'A': {
				A0: -1,
				A3: 0,
				A4: 1,
				A5: 2,
				A6: 3,
				A7: 4,
				A8: 5,
				A9: 6,
				A10:7,
				A11:8,
				A12:9
			},
			'B': {
				B0: -1,
				B3: 0,
				B4: 1,
				B5: 2,
				B6: 3,
				B7: 4,
				B8: 5,
				B9: 6,
				B10:7,
				B11:8,
				B12:9
			},
			'C': {
				C0: -1,
				C3: 0,
				C4: 1,
				C5: 2,
				C6: 3,
				C7: 4,
				C8: 5,
				C9: 6,
				C10:7,
				C11:8,
				C12:9
			},
			'D': {
				D0: -1,
				D1: 0.1,
				D2: 0.01,
				D3: 1,
				D4: 10,
				D5: 100,
				D6: 1000,
				D7: 10000,
				D8: 100000,
				D9: 1000000,
				D10:10000000,
				D11:100000000,
				D12:1000000000
			},
			'E': { 
				E0: 0.2,
				E1: 0.1,
				E2: 0.05,
				E3: 0.2,
				E4: 0.1,
				E5: 0.2,
				E6: 0.3,
				E7: 0.001,
				E8: 0.005,
				E9: 0.0025,
				E10: 0.001,
				E11: 0.0001
			}
		};
		
		var units = {
			0 : '',
			1 : 'k',
			2 : 'M',
			3 : 'G'
		};
		
		function setBandValue(band) {
			var bandId = band.id.substring(4);
			var bandGroup = bandId.substring(0,1);
			var fillColor = getComputedStyle(document.getElementById('band'+bandId),null).getPropertyValue('fill');
			document.getElementById('band' + bandGroup).style.fill = fillColor;
			
			bandValues[bandGroup] = bandGroups[bandGroup][bandId];
			
			calculateResistance();
		}
		
		function calculateResistance() {
			var result = bandValues['A'];
			
			if (bandValues['B'] > -1) {
				if (result == -1) {
					result = bandValues['B'];
				} else {
					result = result * 10 + bandValues['B'];
				}
			}
			
			if (bandValues['C'] > -1) {
				if (result == -1) {
					result = bandValues['C'];
				} else {
					result = result * 10 + bandValues['C'];
				}
			}
			
			if (result > -1) {
				if (bandValues['D'] > -1) {
					result = result * bandValues['D'];
				}
				
				var unit = 0;
			
				while (result >= 1000) {
					++unit;
					result /= 1000;
				}
				
				result = result.toFixed(2);
				document.getElementById('resistanceResult').textContent = '' + result + ' ' + units[unit] + '\u2126';
			}		
			
			document.getElementById('toleranceResult').textContent = '' + (bandValues['E'] * 100) + '%';
		}
	]]>
	</script>
</svg>